<svg width="56" height="56" viewBox="0 0 56 56" fill="none" xmlns="http://www.w3.org/2000/svg">
<rect width="56" height="56" fill="#D1D1D1"/>
<g clip-path="url(#clip0_0_1)">
<rect width="1920" height="1559" transform="translate(-1443 -31)" fill="white"/>
<rect x="-1443" y="-31" width="1920" height="1559" fill="#F9F9F9"/>
<rect x="-1443" y="-31" width="1920" height="120" fill="white"/>
<rect width="56" height="56" rx="8" fill="#F1F1F1"/>
<path d="M37.625 20.1251H36.75V16.6251C36.75 16.4727 36.7102 16.3229 36.6345 16.1907C36.5589 16.0584 36.45 15.9482 36.3186 15.8709C36.1873 15.7937 36.0381 15.752 35.8857 15.7502C35.7333 15.7483 35.5831 15.7863 35.4499 15.8603L28 19.9991L20.5501 15.8603C20.4169 15.7863 20.2667 15.7483 20.1143 15.7502C19.9619 15.752 19.8127 15.7937 19.6814 15.8709C19.55 15.9482 19.4411 16.0584 19.3655 16.1907C19.2898 16.3229 19.25 16.4727 19.25 16.6251V20.1251H18.375C17.679 20.1258 17.0118 20.4026 16.5197 20.8947C16.0276 21.3869 15.7508 22.0541 15.75 22.7501V25.3751C15.7508 26.071 16.0276 26.7383 16.5197 27.2304C17.0118 27.7225 17.679 27.9993 18.375 28.0001H19.25V37.6251C19.2508 38.321 19.5276 38.9882 20.0197 39.4804C20.5118 39.9725 21.179 40.2493 21.875 40.2501H34.125C34.821 40.2493 35.4882 39.9725 35.9803 39.4804C36.4724 38.9882 36.7492 38.321 36.75 37.6251V28.0001H37.625C38.321 27.9993 38.9882 27.7225 39.4803 27.2304C39.9724 26.7383 40.2492 26.071 40.25 25.3751V22.7501C40.2492 22.0541 39.9724 21.3869 39.4803 20.8947C38.9882 20.4026 38.321 20.1258 37.625 20.1251ZM35 20.1251H31.3769L35 18.1126V20.1251ZM21 18.1126L24.6231 20.1251H21V18.1126ZM21 37.6251V28.0001H27.125V38.5001H21.875C21.643 38.4998 21.4206 38.4075 21.2566 38.2434C21.0926 38.0794 21.0003 37.857 21 37.6251ZM35 37.6251C34.9997 37.857 34.9074 38.0794 34.7434 38.2434C34.5794 38.4075 34.357 38.4998 34.125 38.5001H28.875V28.0001H35V37.6251ZM38.5 25.3751C38.4997 25.607 38.4074 25.8294 38.2434 25.9934C38.0794 26.1575 37.857 26.2498 37.625 26.2501H18.375C18.143 26.2498 17.9206 26.1575 17.7566 25.9934C17.5926 25.8294 17.5003 25.607 17.5 25.3751V22.7501C17.5003 22.5181 17.5926 22.2957 17.7566 22.1317C17.9206 21.9676 18.143 21.8754 18.375 21.8751H37.625C37.857 21.8754 38.0794 21.9676 38.2434 22.1317C38.4074 22.2957 38.4997 22.5181 38.5 22.7501V25.3751Z" fill="#3E4954"/>
<circle cx="67" cy="-7" r="13" fill="#3E4954"/>
</g>
<defs>
<clipPath id="clip0_0_1">
<rect width="1920" height="1559" fill="white" transform="translate(-1443 -31)"/>
</clipPath>
</defs>
</svg>
