<svg width="56" height="56" viewBox="0 0 56 56" fill="none" xmlns="http://www.w3.org/2000/svg">
<rect width="56" height="56" fill="#D1D1D1"/>
<g clip-path="url(#clip0_0_1)">
<rect width="1920" height="1559" transform="translate(-1363 -31)" fill="white"/>
<rect x="-1363" y="-31" width="1920" height="1559" fill="#F9F9F9"/>
<rect x="-1363" y="-31" width="1920" height="120" fill="white"/>
<rect width="56" height="56" rx="8" fill="#E9ECFF"/>
<path d="M36.4605 17.8489H19.3169C18.6475 17.8496 18.0057 18.1159 17.5324 18.5892C17.059 19.0625 16.7928 19.7043 16.7921 20.3737V32.1562C16.7928 32.8256 17.059 33.4674 17.5324 33.9407C18.0057 34.4141 18.6475 34.6803 19.3169 34.6811C19.54 34.6812 19.754 34.7699 19.9118 34.9277C20.0696 35.0855 20.1584 35.2995 20.1585 35.5227V37.3168C20.1585 37.6215 20.2412 37.9204 20.3977 38.1818C20.5543 38.4431 20.7789 38.6571 21.0475 38.8009C21.3161 38.9446 21.6187 39.0128 21.923 38.9981C22.2273 38.9834 22.5219 38.8863 22.7754 38.7173L28.6173 34.8224C28.7554 34.7299 28.918 34.6807 29.0842 34.6811H33.187C33.7383 34.68 34.2743 34.4994 34.7137 34.1664C35.1531 33.8335 35.4721 33.3664 35.6222 32.8359L38.8966 21.0501C38.9999 20.6748 39.0152 20.2807 38.9414 19.8986C38.8675 19.5164 38.7064 19.1564 38.4707 18.8466C38.235 18.5369 37.931 18.2857 37.5823 18.1126C37.2336 17.9396 36.8497 17.8493 36.4605 17.8489ZM37.2733 20.603L34.0006 32.3847C33.95 32.5614 33.8432 32.7168 33.6964 32.8275C33.5496 32.9381 33.3708 32.9979 33.187 32.9978H29.0842C28.5856 32.9972 28.0981 33.1448 27.6837 33.4219L21.8417 37.3168V35.5227C21.841 34.8533 21.5747 34.2115 21.1014 33.7382C20.6281 33.2648 19.9863 32.9986 19.3169 32.9978C19.0937 32.9977 18.8797 32.909 18.7219 32.7512C18.5641 32.5934 18.4754 32.3794 18.4753 32.1562V20.3737C18.4754 20.1505 18.5641 19.9365 18.7219 19.7787C18.8797 19.6209 19.0937 19.5322 19.3169 19.5321H36.4605C36.5905 19.5324 36.7188 19.5628 36.8353 19.6208C36.9517 19.6788 37.0532 19.7628 37.1318 19.8665C37.2105 19.9701 37.2642 20.0905 37.2887 20.2182C37.3132 20.346 37.308 20.4777 37.2733 20.603Z" fill="#2F4CDD"/>
<path d="M21.8417 25.4233H26.0498C26.273 25.4233 26.4871 25.3347 26.6449 25.1768C26.8027 25.019 26.8914 24.8049 26.8914 24.5817C26.8914 24.3585 26.8027 24.1444 26.6449 23.9866C26.4871 23.8288 26.273 23.7401 26.0498 23.7401H21.8417C21.6185 23.7401 21.4045 23.8288 21.2466 23.9866C21.0888 24.1444 21.0001 24.3585 21.0001 24.5817C21.0001 24.8049 21.0888 25.019 21.2466 25.1768C21.4045 25.3347 21.6185 25.4233 21.8417 25.4233Z" fill="#2F4CDD"/>
<path d="M29.4162 27.1066H21.8417C21.6185 27.1066 21.4045 27.1952 21.2466 27.3531C21.0888 27.5109 21.0001 27.725 21.0001 27.9482C21.0001 28.1714 21.0888 28.3855 21.2466 28.5433C21.4045 28.7011 21.6185 28.7898 21.8417 28.7898H29.4162C29.6394 28.7898 29.8535 28.7011 30.0113 28.5433C30.1692 28.3855 30.2578 28.1714 30.2578 27.9482C30.2578 27.725 30.1692 27.5109 30.0113 27.3531C29.8535 27.1952 29.6394 27.1066 29.4162 27.1066Z" fill="#2F4CDD"/>
</g>
<defs>
<clipPath id="clip0_0_1">
<rect width="1920" height="1559" fill="white" transform="translate(-1363 -31)"/>
</clipPath>
</defs>
</svg>
