<svg width="56" height="56" viewBox="0 0 56 56" fill="none" xmlns="http://www.w3.org/2000/svg">
<rect width="56" height="56" fill="#D1D1D1"/>
<g clip-path="url(#clip0_0_1)">
<rect width="1920" height="1559" transform="translate(-1523 -32)" fill="white"/>
<rect x="-1523" y="-32" width="1920" height="1559" fill="#F9F9F9"/>
<rect x="-1523" y="-32" width="1920" height="120" fill="white"/>
<rect width="56" height="56" rx="8" fill="#FFEBE7"/>
<path d="M28.0001 23.625C27.1348 23.625 26.289 23.8816 25.5695 24.3623C24.85 24.843 24.2893 25.5263 23.9582 26.3258C23.627 27.1252 23.5404 28.0048 23.7092 28.8535C23.878 29.7022 24.2947 30.4817 24.9065 31.0936C25.5184 31.7054 26.2979 32.1221 27.1466 32.2909C27.9953 32.4597 28.8749 32.3731 29.6744 32.042C30.4738 31.7108 31.1571 31.1501 31.6378 30.4306C32.1185 29.7111 32.3751 28.8653 32.3751 28C32.3737 26.8401 31.9124 25.7281 31.0922 24.9079C30.272 24.0877 29.16 23.6264 28.0001 23.625ZM28.0001 30.625C27.4809 30.625 26.9734 30.471 26.5417 30.1826C26.1101 29.8942 25.7736 29.4842 25.5749 29.0045C25.3763 28.5249 25.3243 27.9971 25.4256 27.4879C25.5268 26.9787 25.7769 26.511 26.144 26.1438C26.5111 25.7767 26.9788 25.5267 27.488 25.4254C27.9972 25.3241 28.525 25.3761 29.0047 25.5748C29.4843 25.7735 29.8943 26.1099 30.1827 26.5416C30.4712 26.9733 30.6251 27.4808 30.6251 28C30.6243 28.6959 30.3475 29.3632 29.8554 29.8553C29.3633 30.3474 28.6961 30.6242 28.0001 30.625Z" fill="#FF6D4D"/>
<path d="M19.4893 22.5598C19.0591 22.3982 18.5828 22.4102 18.1613 22.5935C17.7397 22.7767 17.406 23.1167 17.2307 23.5416C17.0554 23.9664 17.0522 24.4428 17.2219 24.87C17.3915 25.2972 17.7207 25.6416 18.1397 25.8304C18.566 26.0107 18.9297 26.3126 19.1855 26.6984C19.4412 27.0843 19.5776 27.5369 19.5776 27.9997C19.5776 28.4626 19.4412 28.9152 19.1855 29.301C18.9297 29.6869 18.566 29.9888 18.1397 30.1691C17.7206 30.3579 17.3913 30.7024 17.2216 31.1296C17.052 31.5569 17.0552 32.0334 17.2306 32.4583C17.406 32.8833 17.7399 33.2233 18.1615 33.4064C18.5832 33.5896 19.0595 33.6015 19.4898 33.4397C19.9192 33.2648 20.3906 33.2205 20.8451 33.3124C21.2995 33.4042 21.7167 33.6281 22.0445 33.956C22.3722 34.2839 22.5959 34.7013 22.6875 35.1557C22.7792 35.6102 22.7347 36.0816 22.5596 36.5109C22.3927 36.9423 22.4031 37.4222 22.5884 37.846C22.7738 38.2698 23.1191 38.6032 23.5491 38.7736C23.7645 38.8627 23.9953 38.9086 24.2284 38.9086C24.5689 38.911 24.9026 38.8128 25.1875 38.6263C25.4724 38.4399 25.696 38.1735 25.8302 37.8605C26.0105 37.4342 26.3124 37.0705 26.6982 36.8148C27.084 36.559 27.5366 36.4227 27.9995 36.4227C28.4624 36.4227 28.915 36.559 29.3008 36.8148C29.6866 37.0705 29.9885 37.4342 30.1689 37.8605C30.3577 38.2797 30.7022 38.6089 31.1294 38.7786C31.5567 38.9482 32.0332 38.945 32.4581 38.7696C32.883 38.5942 33.223 38.2603 33.4062 37.8387C33.5893 37.417 33.6013 36.9407 33.4394 36.5104C33.2646 36.081 33.2203 35.6096 33.3121 35.1552C33.404 34.7007 33.6279 34.2835 33.9558 33.9558C34.2837 33.628 34.701 33.4043 35.1555 33.3127C35.61 33.221 36.0814 33.2655 36.5107 33.4406C36.9394 33.6071 37.4164 33.5981 37.8386 33.4158C38.2608 33.2334 38.5942 32.8923 38.767 32.466L37.9646 32.1174L37.1683 31.8192C36.4205 31.5137 35.599 31.4361 34.8072 31.5962C34.0154 31.7563 33.2886 32.147 32.7182 32.719C32.1482 33.2936 31.7566 34.0207 31.5906 34.8128C31.4245 35.605 31.4912 36.4282 31.7824 37.1833C31.4703 36.438 30.9446 35.8019 30.2715 35.355C29.5984 34.9082 28.808 34.6706 28.0001 34.6723C27.1904 34.6748 26.3988 34.9119 25.721 35.355C25.0433 35.798 24.5085 36.428 24.1813 37.1686C24.4866 36.4208 24.5641 35.5993 24.404 34.8076C24.244 34.0158 23.8534 33.289 23.2816 32.7185C22.7069 32.1486 21.9798 31.757 21.1877 31.591C20.3956 31.425 19.5724 31.4916 18.8173 31.7828C19.5625 31.4705 20.1986 30.9447 20.6453 30.2715C21.0921 29.5983 21.3296 28.8079 21.3278 28C21.3253 27.1903 21.0881 26.3986 20.6451 25.7209C20.202 25.0432 19.5721 24.5084 18.8314 24.1812C19.5792 24.4867 20.4007 24.5643 21.1925 24.4042C21.9843 24.2441 22.7111 23.8535 23.2816 23.2814C23.8515 22.7069 24.2431 21.9797 24.4092 21.1876C24.5752 20.3955 24.5086 19.5723 24.2173 18.8172C24.5295 19.5624 25.0554 20.1984 25.7285 20.6452C26.4017 21.092 27.1921 21.3294 28.0001 21.3276C28.8098 21.3251 29.6014 21.088 30.2791 20.645C30.9569 20.2019 31.4917 19.5719 31.8188 18.8313C31.5135 19.5791 31.436 20.4006 31.5961 21.1923C31.7562 21.9841 32.1467 22.7109 32.7186 23.2814C33.2934 23.8511 34.0205 24.2425 34.8126 24.4085C35.6046 24.5745 36.4277 24.5081 37.1829 24.2172C36.4413 24.5287 35.8078 25.0517 35.3614 25.7208C34.9149 26.3899 34.6753 27.1757 34.6724 27.98C34.6695 28.7844 34.9034 29.5719 35.345 30.2442C35.7865 30.9165 36.4162 31.4441 37.1556 31.761C37.158 31.7682 37.158 31.776 37.1556 31.7832L37.9643 32.1169L38.7684 32.4617L38.7731 32.4506C38.9517 32.0268 38.9561 31.5497 38.7852 31.1228C38.6144 30.6959 38.2821 30.3535 37.8605 30.17C37.4342 29.9896 37.0704 29.6877 36.8147 29.3019C36.559 28.9161 36.4226 28.4635 36.4226 28.0006C36.4226 27.5377 36.559 27.0851 36.8147 26.6993C37.0704 26.3135 37.4342 26.0116 37.8605 25.8313C38.2796 25.6425 38.6088 25.298 38.7785 24.8707C38.9482 24.4435 38.945 23.967 38.7696 23.542C38.5941 23.1171 38.2603 22.7771 37.8386 22.5939C37.417 22.4108 36.9406 22.3989 36.5103 22.5607C36.081 22.7356 35.6095 22.7798 35.1551 22.688C34.7007 22.5961 34.2835 22.3722 33.9557 22.0443C33.628 21.7164 33.4043 21.2991 33.3126 20.8446C33.221 20.3901 33.2655 19.9187 33.4406 19.4894C33.6023 19.0592 33.5904 18.5829 33.4072 18.1613C33.224 17.7397 32.884 17.4059 32.4591 17.2305C32.0342 17.0551 31.5578 17.0519 31.1305 17.2216C30.7033 17.3913 30.3589 17.7205 30.1701 18.1396C29.9898 18.5659 29.6879 18.9296 29.302 19.1853C28.9162 19.4411 28.4636 19.5774 28.0007 19.5774C27.5379 19.5774 27.0853 19.4411 26.6994 19.1853C26.3136 18.9296 26.0117 18.5659 25.8314 18.1396C25.6426 17.7204 25.2981 17.3912 24.8708 17.2215C24.4436 17.0519 23.9671 17.0551 23.5422 17.2305C23.1172 17.4059 22.7772 17.7398 22.5941 18.1614C22.4109 18.5831 22.399 19.0594 22.5608 19.4897C22.7357 19.9191 22.78 20.3905 22.6881 20.8449C22.5963 21.2994 22.3724 21.7166 22.0444 22.0443C21.7165 22.3721 21.2992 22.5958 20.8447 22.6874C20.3903 22.7791 19.9189 22.7345 19.4896 22.5595L19.4893 22.5598Z" fill="#FF6D4D"/>
</g>
<defs>
<clipPath id="clip0_0_1">
<rect width="1920" height="1559" fill="white" transform="translate(-1523 -32)"/>
</clipPath>
</defs>
</svg>
