<svg width="84" height="84" viewBox="0 0 84 84" fill="none" xmlns="http://www.w3.org/2000/svg">
<circle cx="42" cy="42" r="42" fill="#DEE4FF"/>
<path d="M38.25 43.25C39.2389 43.25 40.2056 42.9568 41.0279 42.4074C41.8501 41.8579 42.491 41.0771 42.8694 40.1634C43.2478 39.2498 43.3469 38.2445 43.1539 37.2746C42.961 36.3046 42.4848 35.4137 41.7855 34.7145C41.0863 34.0152 40.1954 33.539 39.2255 33.3461C38.2555 33.1531 37.2502 33.2522 36.3366 33.6306C35.423 34.009 34.6421 34.6499 34.0927 35.4722C33.5432 36.2944 33.25 37.2611 33.25 38.25C33.2513 39.5757 33.7785 40.8467 34.7159 41.7841C35.6533 42.7215 36.9243 43.2487 38.25 43.25ZM38.25 35.75C38.7445 35.75 39.2278 35.8966 39.6389 36.1713C40.05 36.446 40.3705 36.8365 40.5597 37.2933C40.7489 37.7501 40.7984 38.2528 40.702 38.7377C40.6055 39.2227 40.3674 39.6681 40.0178 40.0178C39.6681 40.3674 39.2227 40.6055 38.7377 40.702C38.2528 40.7984 37.7501 40.7489 37.2933 40.5597C36.8365 40.3705 36.446 40.0501 36.1713 39.6389C35.8966 39.2278 35.75 38.7445 35.75 38.25C35.7509 37.5872 36.0146 36.9519 36.4832 36.4832C36.9519 36.0146 37.5872 35.7509 38.25 35.75Z" fill="#2F4CDD"/>
<path d="M57.78 46.4625C58.1926 45.9099 58.4683 45.2672 58.5844 44.5873C58.7005 43.9074 58.6536 43.2097 58.4477 42.5514L57.6542 39.9697C57.2817 38.7452 56.5243 37.6734 55.4945 36.9133C54.4647 36.1532 53.2174 35.7453 51.9375 35.75H46.3286C45.9971 35.75 45.6791 35.8817 45.4447 36.1162C45.2103 36.3506 45.0786 36.6685 45.0786 37C45.0786 37.3316 45.2103 37.6495 45.4447 37.8839C45.6791 38.1183 45.9971 38.25 46.3286 38.25H51.9375C52.6823 38.2475 53.408 38.485 54.0072 38.9274C54.6064 39.3698 55.047 39.9935 55.2638 40.706L56.0573 43.2867C56.1449 43.5713 56.1645 43.8725 56.1145 44.1661C56.0644 44.4597 55.9462 44.7375 55.7694 44.977C55.5925 45.2166 55.3618 45.4114 55.096 45.5456C54.8302 45.6799 54.5365 45.7499 54.2387 45.75H42.7776C42.7422 45.75 42.7126 45.7672 42.6776 45.7702C42.5936 45.7669 42.5125 45.75 42.4272 45.75H34.5897C33.2007 45.745 31.847 46.188 30.7297 47.0132C29.6123 47.8385 28.7909 49.0021 28.3873 50.3313L27.4541 53.3625C27.2361 54.0719 27.1876 54.8225 27.3124 55.5541C27.4373 56.2856 27.732 56.9777 28.1729 57.5746C28.6138 58.1715 29.1886 58.6567 29.8511 58.9911C30.5136 59.3255 31.2453 59.4998 31.9875 59.5H45.0286C45.7707 59.4999 46.5025 59.3256 47.1651 58.9913C47.8277 58.6569 48.4025 58.1717 48.8435 57.5748C49.2845 56.9778 49.5793 56.2858 49.7041 55.5542C49.829 54.8226 49.7805 54.0719 49.5625 53.3625L48.6298 50.3315C48.3936 49.5767 48.0216 48.8713 47.5322 48.25H54.2387C54.9283 48.2532 55.6087 48.0929 56.2243 47.7821C56.8399 47.4714 57.373 47.0192 57.78 46.4625ZM46.8327 56.089C46.6254 56.3727 46.3538 56.6031 46.0402 56.7615C45.7266 56.9198 45.3799 57.0016 45.0286 57H31.9875C31.6365 57 31.2904 56.9176 30.977 56.7594C30.6637 56.6012 30.3918 56.3718 30.1833 56.0894C29.9748 55.807 29.8355 55.4797 29.7766 55.1337C29.7176 54.7876 29.7407 54.4326 29.844 54.0971L30.7766 51.0661C31.0244 50.249 31.5292 49.5335 32.2161 49.0262C32.9029 48.5188 33.7352 48.2466 34.5891 48.25H42.4266C43.2805 48.2466 44.1127 48.5188 44.7996 49.0262C45.4865 49.5335 45.9913 50.249 46.2391 51.0661L47.1717 54.0971C47.2769 54.4324 47.301 54.7877 47.2421 55.1341C47.1831 55.4804 47.0428 55.8078 46.8327 56.0894V56.089Z" fill="#2F4CDD"/>
<path d="M48.875 33.25C49.7403 33.25 50.5861 32.9934 51.3056 32.5127C52.0251 32.0319 52.5858 31.3487 52.917 30.5492C53.2481 29.7498 53.3347 28.8701 53.1659 28.0215C52.9971 27.1728 52.5804 26.3933 51.9686 25.7814C51.3567 25.1696 50.5772 24.7529 49.7285 24.5841C48.8798 24.4153 48.0002 24.5019 47.2008 24.833C46.4013 25.1642 45.7181 25.7249 45.2373 26.4444C44.7566 27.1638 44.5 28.0097 44.5 28.875C44.5014 30.0349 44.9628 31.1469 45.7829 31.967C46.6031 32.7872 47.7151 33.2486 48.875 33.25ZM48.875 27C49.2458 27 49.6083 27.11 49.9167 27.316C50.225 27.522 50.4654 27.8149 50.6073 28.1575C50.7492 28.5001 50.7863 28.8771 50.714 29.2408C50.6416 29.6045 50.463 29.9386 50.2008 30.2008C49.9386 30.463 49.6045 30.6416 49.2408 30.714C48.8771 30.7863 48.5001 30.7492 48.1575 30.6073C47.8149 30.4654 47.522 30.225 47.316 29.9167C47.11 29.6083 47 29.2458 47 28.875C47.0006 28.3779 47.1983 27.9013 47.5498 27.5498C47.9013 27.1983 48.3779 27.0006 48.875 27Z" fill="#2F4CDD"/>
</svg>
