<svg width="84" height="84" viewBox="0 0 84 84" fill="none" xmlns="http://www.w3.org/2000/svg">
<circle cx="42" cy="42" r="42" fill="#DEE4FF"/>
<path d="M52.08 48.36C52.08 49.64 51.76 50.8667 51.12 52.04C50.48 53.1867 49.5333 54.1467 48.28 54.92C47.0533 55.6933 45.5733 56.1333 43.84 56.24V59.48H41.68V56.24C39.2533 56.0267 37.28 55.2533 35.76 53.92C34.24 52.56 33.4667 50.84 33.44 48.76H37.32C37.4267 49.88 37.84 50.8533 38.56 51.68C39.3067 52.5067 40.3467 53.0267 41.68 53.24V43.24C39.8933 42.7867 38.4533 42.32 37.36 41.84C36.2667 41.36 35.3333 40.6133 34.56 39.6C33.7867 38.5867 33.4 37.2267 33.4 35.52C33.4 33.36 34.1467 31.5733 35.64 30.16C37.16 28.7467 39.1733 27.96 41.68 27.8V24.48H43.84V27.8C46.1067 27.9867 47.9333 28.72 49.32 30C50.7067 31.2533 51.5067 32.8933 51.72 34.92H47.84C47.7067 33.9867 47.2933 33.1467 46.6 32.4C45.9067 31.6267 44.9867 31.12 43.84 30.88V40.64C45.6 41.0933 47.0267 41.56 48.12 42.04C49.24 42.4933 50.1733 43.2267 50.92 44.24C51.6933 45.2533 52.08 46.6267 52.08 48.36ZM37.12 35.32C37.12 36.6267 37.5067 37.6267 38.28 38.32C39.0533 39.0133 40.1867 39.5867 41.68 40.04V30.8C40.2933 30.9333 39.1867 31.3867 38.36 32.16C37.5333 32.9067 37.12 33.96 37.12 35.32ZM43.84 53.28C45.28 53.12 46.4 52.6 47.2 51.72C48.0267 50.84 48.44 49.7867 48.44 48.56C48.44 47.2533 48.04 46.2533 47.24 45.56C46.44 44.84 45.3067 44.2667 43.84 43.84V53.28Z" fill="#2F4CDD"/>
</svg>
